<?xml version="1.0" encoding="UTF-8" standalone="no"?>
<!-- Created with Inkscape (http://www.inkscape.org/) -->

<svg
   xmlns:dc="http://purl.org/dc/elements/1.1/"
   xmlns:cc="http://creativecommons.org/ns#"
   xmlns:rdf="http://www.w3.org/1999/02/22-rdf-syntax-ns#"
   xmlns:svg="http://www.w3.org/2000/svg"
   xmlns="http://www.w3.org/2000/svg"
   xmlns:sodipodi="http://sodipodi.sourceforge.net/DTD/sodipodi-0.dtd"
   xmlns:inkscape="http://www.inkscape.org/namespaces/inkscape"
   id="svg4136"
   version="1.1"
   inkscape:version="0.91 r13725"
   xml:space="preserve"
   width="1200"
   height="675"
   viewBox="0 0 1200 675"
   sodipodi:docname="warning_sign.svg"><metadata
     id="metadata4142"><rdf:RDF><cc:Work
         rdf:about=""><dc:format>image/svg+xml</dc:format><dc:type
           rdf:resource="http://purl.org/dc/dcmitype/StillImage" /><dc:title></dc:title></cc:Work></rdf:RDF></metadata><defs
     id="defs4140"><clipPath
       clipPathUnits="userSpaceOnUse"
       id="clipPath4150"><path
         d="m 0,1.2207e-4 960,0 0,539.99999793 -960,0 L 0,1.2207e-4 Z"
         id="path4152"
         inkscape:connector-curvature="0"
         style="clip-rule:evenodd" /></clipPath><clipPath
       clipPathUnits="userSpaceOnUse"
       id="clipPath4174"><path
         d="M 1.4305e-5,0 960.00001,0 l 0,540 -959.999995695,0 0,-540 z"
         id="path4176"
         inkscape:connector-curvature="0"
         style="clip-rule:evenodd" /></clipPath></defs><sodipodi:namedview
     pagecolor="#ffffff"
     bordercolor="#666666"
     borderopacity="1"
     objecttolerance="10"
     gridtolerance="10"
     guidetolerance="10"
     inkscape:pageopacity="0"
     inkscape:pageshadow="2"
     inkscape:window-width="2560"
     inkscape:window-height="1377"
     id="namedview4138"
     showgrid="false"
     inkscape:zoom="1.62"
     inkscape:cx="600"
     inkscape:cy="337.5"
     inkscape:window-x="-8"
     inkscape:window-y="-8"
     inkscape:window-maximized="1"
     inkscape:current-layer="g4144" /><g
     id="g4144"
     inkscape:groupmode="layer"
     inkscape:label="varningsskylt"
     transform="matrix(1.25,0,0,-1.25,0,675)"><path
       d="m 32.747654,376.16494 74.819996,140.28 74.82,-140.28 -149.639996,0 z"
       style="fill:#5b9bd5;fill-opacity:1;fill-rule:evenodd;stroke:none"
       id="path4156"
       inkscape:connector-curvature="0" /><path
       d="m 32.747654,376.16494 74.819996,140.28 74.82,-140.28 -149.639996,0 z"
       style="fill:none;stroke:#000000;stroke-width:17.76000023;stroke-linecap:round;stroke-linejoin:round;stroke-miterlimit:10;stroke-dasharray:none;stroke-opacity:1"
       id="path4158"
       inkscape:connector-curvature="0" /><path
       d="m 35.867654,377.48494 71.699996,133.08 71.7,-133.08 -143.399996,0 z"
       style="fill:#ffc000;fill-opacity:1;fill-rule:evenodd;stroke:none"
       id="path4160"
       inkscape:connector-curvature="0" /><path
       d="m 100.98765,462.92494 6.07,-14.12 -2.5,-1.66 7.64,-12.1 -2.5,-2.02 9.45,-20.26 -16.03,15.52 3.06,2.16 -9.959996,9.94 3.57,3.08 -10.52,10.43 11.719996,9.03 z"
       style="fill:#000000;fill-opacity:1;fill-rule:evenodd;stroke:none"
       id="path4162"
       inkscape:connector-curvature="0" /><path
       d="m 131.44765,428.72494 c 0,-4.01 -8.7,-7.26 -19.44,-7.26 -10.74,0 -19.439996,3.25 -19.439996,7.26 0,4.01 8.699996,7.26 19.439996,7.26 10.74,0 19.44,-3.25 19.44,-7.26 z m 0,0 0,-25.8 c 0,-4.01 -8.7,-7.26 -19.44,-7.26 -10.74,0 -19.439996,3.25 -19.439996,7.26 l 0,25.8"
       style="fill:none;stroke:#000000;stroke-width:4.19999981;stroke-linecap:butt;stroke-linejoin:miter;stroke-miterlimit:8;stroke-dasharray:none;stroke-opacity:1"
       id="path4164"
       inkscape:connector-curvature="0" /><path
       d="m 30.407654,320.18494 154.439996,0 0,36.12 -154.439996,0 0,-36.12 z"
       style="fill:#ffc000;fill-opacity:1;fill-rule:evenodd;stroke:none"
       id="path4166"
       inkscape:connector-curvature="0" /><path
       d="m 30.407654,320.18494 154.439996,0 0,36.12 -154.439996,0 0,-36.12 z"
       style="fill:none;stroke:#000000;stroke-width:8.76000023;stroke-linecap:round;stroke-linejoin:round;stroke-miterlimit:8;stroke-dasharray:none;stroke-opacity:1"
       id="path4168"
       inkscape:connector-curvature="0" /><g
       id="g4170"
       transform="translate(-39.012346,71.604938)"><g
         id="g4172"
         clip-path="url(#clipPath4174)"><text
           transform="matrix(1,0,0,-1,84.624,261.12)"
           style="font-variant:normal;font-weight:normal;font-size:14.03999996px;font-family:Impact;-inkscape-font-specification:Impact;writing-mode:lr-tb;fill:#000000;fill-opacity:1;fill-rule:nonzero;stroke:none"
           id="text4178"><tspan
             x="0 7.7641201 13.66092 20.86344 27.33588 34.903439 42.569279 49.210201 56.38464 58.883759 66.563637 73.766159 81.558357 83.959198 91.72332 99.290878 103.39056 110.73348 116.57412"
             y="0"
             sodipodi:role="line"
             id="tspan4180">DESTROYS USB DRIVES</tspan></text>
</g></g></g></svg>